<?xml version="1.0" encoding="UTF-8" standalone="no"?>
<svg
   xmlns:dc="http://purl.org/dc/elements/1.1/"
   xmlns:cc="http://creativecommons.org/ns#"
   xmlns:rdf="http://www.w3.org/1999/02/22-rdf-syntax-ns#"
   xmlns:svg="http://www.w3.org/2000/svg"
   xmlns="http://www.w3.org/2000/svg"
   width="457.94992mm"
   height="342.4689mm"
   viewBox="0 0 457.94992 342.4689"
   version="1.1"
   id="svg8">
  <defs
     id="defs2" />
  <metadata
     id="metadata5">
    <rdf:RDF>
      <cc:Work
         rdf:about="">
        <dc:format>image/svg+xml</dc:format>
        <dc:type
           rdf:resource="http://purl.org/dc/dcmitype/StillImage" />
        <dc:title></dc:title>
      </cc:Work>
    </rdf:RDF>
  </metadata>
  <g
     id="layer1"
     transform="translate(541.31402,-263.68806)">
    <g
       id="layer1-6"
       transform="translate(289.71417,267.21021)">
      <g
         id="g887">
        <rect
           style="fill:#558b2d;fill-opacity:1;stroke:none;stroke-width:22.8161;stroke-linecap:round;stroke-linejoin:round;paint-order:fill markers stroke"
           id="rect859"
           width="237.0175"
           height="97.090309"
           x="-860.34369"
           y="-164.85085"
           transform="matrix(0.96592583,-0.25881905,0,1,0,0)" />
        <rect
           style="fill:#336724;fill-opacity:1;stroke:none;stroke-width:22.8161;stroke-linecap:round;stroke-linejoin:round;paint-order:fill markers stroke"
           id="rect863"
           width="237.0175"
           height="97.090309"
           x="386.30865"
           y="157.80653"
           transform="matrix(-0.96592583,-0.25881905,0,1,0,0)" />
        <rect
           style="fill:#8cc24c;fill-opacity:1;stroke:none;stroke-width:22.8161;stroke-linecap:round;stroke-linejoin:round;paint-order:fill markers stroke"
           id="rect869"
           width="237.0175"
           height="97.090309"
           x="623.32617"
           y="403.18512"
           transform="matrix(-0.96592583,-0.25881905,0,1,0,0)" />
        <path
           style="fill:#689e3c;fill-opacity:1;stroke:none;stroke-width:0.593299px;stroke-linecap:butt;stroke-linejoin:miter;stroke-opacity:1"
           d="M -831.02817,57.822497 V 154.91281 L -373.14551,277.6021 V 180.51179 Z"
           id="path871" />
        <path
           id="rect867"
           style="fill:#7bb443;fill-opacity:1;stroke:none;stroke-width:22.4239;stroke-linecap:round;stroke-linejoin:round;paint-order:fill markers stroke"
           d="m -395.45808,186.50888 c -68.63196,18.39177 -137.2638,36.78391 -205.8971,55.17071 -1.4639,1.3986 -0.39753,3.69636 -0.71391,5.4711 0.0202,30.52935 -0.0626,61.10205 0.0614,91.60431 2.15994,-0.15315 4.23879,-1.144 6.38483,-1.56252 73.92323,-19.80666 147.84649,-39.61334 221.76973,-59.42001 1.42387,-1.61286 0.38995,-4.00444 0.68761,-5.94498 -0.002,-30.38117 0.007,-60.77406 -0.004,-91.14795 -7.43835,1.76276 -14.86093,3.9172 -22.28814,5.82934 z" />
      </g>
    </g>
  </g>
</svg>
